<mxfile host="app.diagrams.net" modified="2023-11-06T16:04:15.740Z" agent="Mozilla/5.0 (Windows NT 10.0; Win64; x64) AppleWebKit/537.36 (KHTML, like Gecko) Chrome/119.0.0.0 Safari/537.36" etag="pn3LsOprpllmbXc1RMcu" version="22.0.8" type="github">
  <diagram id="R2lEEEUBdFMjLlhIrx00" name="Page-1">
    <mxGraphModel dx="2234" dy="790" grid="0" gridSize="10" guides="1" tooltips="1" connect="1" arrows="1" fold="1" page="0" pageScale="1" pageWidth="850" pageHeight="1100" math="0" shadow="0" extFonts="Permanent Marker^https://fonts.googleapis.com/css?family=Permanent+Marker">
      <root>
        <mxCell id="0" />
        <mxCell id="1" parent="0" />
        <mxCell id="uXSZ9oOi-HadZaXaUpzR-9" style="edgeStyle=orthogonalEdgeStyle;rounded=0;orthogonalLoop=1;jettySize=auto;html=1;exitX=0;exitY=0.5;exitDx=0;exitDy=0;endArrow=none;endFill=0;" parent="1" source="uXSZ9oOi-HadZaXaUpzR-1" target="uXSZ9oOi-HadZaXaUpzR-7" edge="1">
          <mxGeometry relative="1" as="geometry" />
        </mxCell>
        <mxCell id="uXSZ9oOi-HadZaXaUpzR-18" style="edgeStyle=orthogonalEdgeStyle;rounded=0;orthogonalLoop=1;jettySize=auto;html=1;exitX=1;exitY=0.5;exitDx=0;exitDy=0;endArrow=none;endFill=0;" parent="1" source="uXSZ9oOi-HadZaXaUpzR-1" target="uXSZ9oOi-HadZaXaUpzR-14" edge="1">
          <mxGeometry relative="1" as="geometry" />
        </mxCell>
        <mxCell id="uXSZ9oOi-HadZaXaUpzR-1" value="&lt;font style=&quot;font-size: 18px;&quot;&gt;ComplejoDeportivo&lt;/font&gt;" style="whiteSpace=wrap;html=1;align=center;" parent="1" vertex="1">
          <mxGeometry x="-174" y="390.5" width="200" height="51" as="geometry" />
        </mxCell>
        <mxCell id="uXSZ9oOi-HadZaXaUpzR-8" style="edgeStyle=orthogonalEdgeStyle;rounded=0;orthogonalLoop=1;jettySize=auto;html=1;exitX=1;exitY=0.5;exitDx=0;exitDy=0;endArrow=none;endFill=0;" parent="1" source="uXSZ9oOi-HadZaXaUpzR-3" target="uXSZ9oOi-HadZaXaUpzR-7" edge="1">
          <mxGeometry relative="1" as="geometry" />
        </mxCell>
        <mxCell id="uXSZ9oOi-HadZaXaUpzR-3" value="&lt;font style=&quot;font-size: 18px;&quot;&gt;Sede&lt;/font&gt;" style="whiteSpace=wrap;html=1;align=center;" parent="1" vertex="1">
          <mxGeometry x="-663" y="396" width="100" height="40" as="geometry" />
        </mxCell>
        <mxCell id="uXSZ9oOi-HadZaXaUpzR-25" style="edgeStyle=orthogonalEdgeStyle;rounded=0;orthogonalLoop=1;jettySize=auto;html=1;" parent="1" source="uXSZ9oOi-HadZaXaUpzR-4" target="uXSZ9oOi-HadZaXaUpzR-24" edge="1">
          <mxGeometry relative="1" as="geometry" />
        </mxCell>
        <mxCell id="uXSZ9oOi-HadZaXaUpzR-4" value="&lt;font style=&quot;font-size: 18px;&quot;&gt;Evento&lt;/font&gt;" style="whiteSpace=wrap;html=1;align=center;" parent="1" vertex="1">
          <mxGeometry x="-124" y="68" width="100" height="40" as="geometry" />
        </mxCell>
        <mxCell id="uXSZ9oOi-HadZaXaUpzR-5" value="&lt;font style=&quot;font-size: 18px;&quot;&gt;Area&lt;/font&gt;" style="whiteSpace=wrap;html=1;align=center;" parent="1" vertex="1">
          <mxGeometry x="343" y="396" width="100" height="40" as="geometry" />
        </mxCell>
        <mxCell id="uXSZ9oOi-HadZaXaUpzR-6" value="&lt;font style=&quot;font-size: 18px;&quot;&gt;Equipamiento&lt;/font&gt;" style="whiteSpace=wrap;html=1;align=center;" parent="1" vertex="1">
          <mxGeometry x="288" y="74" width="153" height="40" as="geometry" />
        </mxCell>
        <mxCell id="uXSZ9oOi-HadZaXaUpzR-7" value="&lt;font style=&quot;font-size: 18px;&quot;&gt;Subdivide&lt;/font&gt;" style="shape=rhombus;perimeter=rhombusPerimeter;whiteSpace=wrap;html=1;align=center;" parent="1" vertex="1">
          <mxGeometry x="-434" y="386" width="153" height="60" as="geometry" />
        </mxCell>
        <mxCell id="uXSZ9oOi-HadZaXaUpzR-22" style="edgeStyle=orthogonalEdgeStyle;rounded=0;orthogonalLoop=1;jettySize=auto;html=1;exitX=1;exitY=0.5;exitDx=0;exitDy=0;endArrow=none;endFill=0;" parent="1" source="uXSZ9oOi-HadZaXaUpzR-11" target="uXSZ9oOi-HadZaXaUpzR-13" edge="1">
          <mxGeometry relative="1" as="geometry" />
        </mxCell>
        <mxCell id="uXSZ9oOi-HadZaXaUpzR-11" value="&lt;font style=&quot;font-size: 18px;&quot;&gt;Comisario&lt;/font&gt;" style="whiteSpace=wrap;html=1;align=center;" parent="1" vertex="1">
          <mxGeometry x="-574" y="68" width="100" height="40" as="geometry" />
        </mxCell>
        <mxCell id="uXSZ9oOi-HadZaXaUpzR-20" style="edgeStyle=orthogonalEdgeStyle;rounded=0;orthogonalLoop=1;jettySize=auto;html=1;endArrow=none;endFill=0;" parent="1" source="uXSZ9oOi-HadZaXaUpzR-12" target="uXSZ9oOi-HadZaXaUpzR-1" edge="1">
          <mxGeometry relative="1" as="geometry" />
        </mxCell>
        <mxCell id="uXSZ9oOi-HadZaXaUpzR-21" style="edgeStyle=orthogonalEdgeStyle;rounded=0;orthogonalLoop=1;jettySize=auto;html=1;endArrow=none;endFill=0;" parent="1" source="uXSZ9oOi-HadZaXaUpzR-12" target="uXSZ9oOi-HadZaXaUpzR-4" edge="1">
          <mxGeometry relative="1" as="geometry" />
        </mxCell>
        <mxCell id="uXSZ9oOi-HadZaXaUpzR-12" value="&lt;font style=&quot;font-size: 18px;&quot;&gt;Celebra&lt;/font&gt;" style="shape=rhombus;perimeter=rhombusPerimeter;whiteSpace=wrap;html=1;align=center;" parent="1" vertex="1">
          <mxGeometry x="-134" y="219" width="120" height="60" as="geometry" />
        </mxCell>
        <mxCell id="uXSZ9oOi-HadZaXaUpzR-23" style="edgeStyle=orthogonalEdgeStyle;rounded=0;orthogonalLoop=1;jettySize=auto;html=1;exitX=1;exitY=0.5;exitDx=0;exitDy=0;endArrow=none;endFill=0;" parent="1" source="uXSZ9oOi-HadZaXaUpzR-13" target="uXSZ9oOi-HadZaXaUpzR-4" edge="1">
          <mxGeometry relative="1" as="geometry" />
        </mxCell>
        <mxCell id="uXSZ9oOi-HadZaXaUpzR-13" value="&lt;font style=&quot;font-size: 18px;&quot;&gt;Involucra&lt;/font&gt;" style="shape=rhombus;perimeter=rhombusPerimeter;whiteSpace=wrap;html=1;align=center;" parent="1" vertex="1">
          <mxGeometry x="-359" y="58" width="120" height="60" as="geometry" />
        </mxCell>
        <mxCell id="uXSZ9oOi-HadZaXaUpzR-19" style="edgeStyle=orthogonalEdgeStyle;rounded=0;orthogonalLoop=1;jettySize=auto;html=1;exitX=1;exitY=0.5;exitDx=0;exitDy=0;entryX=0;entryY=0.5;entryDx=0;entryDy=0;endArrow=none;endFill=0;" parent="1" source="uXSZ9oOi-HadZaXaUpzR-14" target="uXSZ9oOi-HadZaXaUpzR-5" edge="1">
          <mxGeometry relative="1" as="geometry" />
        </mxCell>
        <mxCell id="uXSZ9oOi-HadZaXaUpzR-14" value="&lt;span style=&quot;font-size: 18px;&quot;&gt;Posee&lt;/span&gt;" style="shape=rhombus;perimeter=rhombusPerimeter;whiteSpace=wrap;html=1;align=center;" parent="1" vertex="1">
          <mxGeometry x="118" y="386" width="120" height="60" as="geometry" />
        </mxCell>
        <mxCell id="uXSZ9oOi-HadZaXaUpzR-15" value="&lt;font style=&quot;font-size: 18px;&quot;&gt;1:M&lt;/font&gt;" style="text;html=1;align=center;verticalAlign=middle;resizable=0;points=[];autosize=1;strokeColor=none;fillColor=none;" parent="1" vertex="1">
          <mxGeometry x="-223" y="382" width="48" height="34" as="geometry" />
        </mxCell>
        <mxCell id="uXSZ9oOi-HadZaXaUpzR-16" value="&lt;font style=&quot;font-size: 18px;&quot;&gt;1:1&lt;/font&gt;" style="text;html=1;align=center;verticalAlign=middle;resizable=0;points=[];autosize=1;strokeColor=none;fillColor=none;" parent="1" vertex="1">
          <mxGeometry x="-563" y="382" width="43" height="34" as="geometry" />
        </mxCell>
        <mxCell id="uXSZ9oOi-HadZaXaUpzR-17" value="&lt;font style=&quot;font-size: 18px;&quot;&gt;1:M&lt;/font&gt;" style="text;html=1;align=center;verticalAlign=middle;resizable=0;points=[];autosize=1;strokeColor=none;fillColor=none;" parent="1" vertex="1">
          <mxGeometry x="-381.5" y="352" width="48" height="34" as="geometry" />
        </mxCell>
        <mxCell id="uXSZ9oOi-HadZaXaUpzR-26" style="edgeStyle=orthogonalEdgeStyle;rounded=0;orthogonalLoop=1;jettySize=auto;html=1;" parent="1" source="uXSZ9oOi-HadZaXaUpzR-24" target="uXSZ9oOi-HadZaXaUpzR-6" edge="1">
          <mxGeometry relative="1" as="geometry" />
        </mxCell>
        <mxCell id="uXSZ9oOi-HadZaXaUpzR-24" value="&lt;span style=&quot;font-size: 18px;&quot;&gt;Necesita&lt;/span&gt;" style="shape=rhombus;perimeter=rhombusPerimeter;whiteSpace=wrap;html=1;align=center;" parent="1" vertex="1">
          <mxGeometry x="35" y="56" width="120" height="60" as="geometry" />
        </mxCell>
        <mxCell id="uXSZ9oOi-HadZaXaUpzR-27" value="&lt;font style=&quot;font-size: 18px;&quot;&gt;1:1&lt;/font&gt;" style="text;html=1;align=center;verticalAlign=middle;resizable=0;points=[];autosize=1;strokeColor=none;fillColor=none;" parent="1" vertex="1">
          <mxGeometry x="-74" y="356.5" width="43" height="34" as="geometry" />
        </mxCell>
        <mxCell id="uXSZ9oOi-HadZaXaUpzR-28" value="&lt;font style=&quot;font-size: 18px;&quot;&gt;0:M&lt;/font&gt;" style="text;html=1;align=center;verticalAlign=middle;resizable=0;points=[];autosize=1;strokeColor=none;fillColor=none;" parent="1" vertex="1">
          <mxGeometry x="-74" y="36" width="48" height="34" as="geometry" />
        </mxCell>
        <mxCell id="uXSZ9oOi-HadZaXaUpzR-29" value="&lt;font style=&quot;font-size: 18px;&quot;&gt;1:M&lt;/font&gt;" style="text;html=1;align=center;verticalAlign=middle;resizable=0;points=[];autosize=1;strokeColor=none;fillColor=none;" parent="1" vertex="1">
          <mxGeometry x="-74" y="108" width="48" height="34" as="geometry" />
        </mxCell>
        <mxCell id="Mlw_gC38UTIcC0JPLQly-1" value="&lt;font style=&quot;font-size: 18px;&quot;&gt;0:M&lt;/font&gt;" style="text;html=1;align=center;verticalAlign=middle;resizable=0;points=[];autosize=1;strokeColor=none;fillColor=none;" vertex="1" parent="1">
          <mxGeometry x="295" y="382" width="48" height="34" as="geometry" />
        </mxCell>
        <mxCell id="Mlw_gC38UTIcC0JPLQly-2" value="&lt;font style=&quot;font-size: 18px;&quot;&gt;1:1&lt;/font&gt;" style="text;html=1;align=center;verticalAlign=middle;resizable=0;points=[];autosize=1;strokeColor=none;fillColor=none;" vertex="1" parent="1">
          <mxGeometry x="21" y="385" width="43" height="34" as="geometry" />
        </mxCell>
        <mxCell id="Mlw_gC38UTIcC0JPLQly-3" value="&lt;font style=&quot;font-size: 18px;&quot;&gt;1:M&lt;/font&gt;" style="text;html=1;align=center;verticalAlign=middle;resizable=0;points=[];autosize=1;strokeColor=none;fillColor=none;" vertex="1" parent="1">
          <mxGeometry x="154" y="351" width="48" height="34" as="geometry" />
        </mxCell>
        <mxCell id="Mlw_gC38UTIcC0JPLQly-4" value="&lt;font style=&quot;font-size: 18px;&quot;&gt;0:M&lt;/font&gt;" style="text;html=1;align=center;verticalAlign=middle;resizable=0;points=[];autosize=1;strokeColor=none;fillColor=none;" vertex="1" parent="1">
          <mxGeometry x="-168" y="58" width="48" height="34" as="geometry" />
        </mxCell>
        <mxCell id="Mlw_gC38UTIcC0JPLQly-5" value="&lt;font style=&quot;font-size: 18px;&quot;&gt;1:M&lt;/font&gt;" style="text;html=1;align=center;verticalAlign=middle;resizable=0;points=[];autosize=1;strokeColor=none;fillColor=none;" vertex="1" parent="1">
          <mxGeometry x="-18" y="231" width="48" height="34" as="geometry" />
        </mxCell>
      </root>
    </mxGraphModel>
  </diagram>
</mxfile>
